# xmcd
#
# Track frame offsets: 
#        150
#        14251
#        23898
#        37775
#        49095
#        62126
#        71953
#        87234
#        107068
#        120558
#        137805
#        151104
#        161979
#        172704
#
# Disc length: 2475 seconds
#
# Revision: 0
# Processed by: cddbd v1.5.2PL0 Copyright (c) Steve Scherf et al.
# Submitted via: ExactAudioCopy v1.2
#
DISCID=b109a90e
DTITLE=Peter Tork And The Shoe Suede Blues - Relax Your Mind
DYEAR=2018
DGENRE=Blues
TTITLE0=Hello, Central
TTITLE1=Bottle Up And Go
TTITLE2=Fannin St. (Mr. Tom Hughes' Town)
TTITLE3=On A Monday
TTITLE4=Black Betty
TTITLE5=Relax Your Mind
TTITLE6=Irene (Goonight, Irene)
TTITLE7=Good Morning, Blues
TTITLE8=How Come You Do Me Like You Do?
TTITLE9=Easy Rider
TTITLE10=He Never Said A Mumblin' Word
TTITLE11=Duncan And Brady
TTITLE12=Come And Sit Down Beside Me
TTITLE13=Jean Harlow
EXTD=
EXTT0=
EXTT1=
EXTT2=
EXTT3=
EXTT4=
EXTT5=
EXTT6=
EXTT7=
EXTT8=
EXTT9=
EXTT10=
EXTT11=
EXTT12=
EXTT13=
PLAYORDER=
